<svg viewBox="0 0 1183.87 816.464" fill="none" xmlns="http://www.w3.org/2000/svg">
  <path d="M591.316 816.464C591.316 816.464 962.183 816.464 1054.17 791.97C1105.97 778.09 1144.92 738.084 1158.6 688.688C1183.87 598.06 1183.87 407.416 1183.87 407.416C1183.87 407.416 1183.87 217.996 1158.6 128.185C1144.92 77.5641 1105.97 38.3738 1054.17 24.9022C962.183 0 591.316 0 591.316 0C591.316 0 221.277 0 129.7 24.9022C78.7317 38.3738 38.9514 77.5641 24.4482 128.185C-7.20888e-06 217.996 0 407.416 0 407.416C0 407.416 -7.20888e-06 598.06 24.4482 688.688C38.9514 738.084 78.7317 778.09 129.7 791.97C221.277 816.464 591.316 816.464 591.316 816.464Z" fill="black"/>
  <path d="M775.643 408.233L469.469 234.734V581.732L775.643 408.233Z" fill="white"/>
</svg>
